<?xml version="1.0" standalone="no"?>
<!DOCTYPE svg PUBLIC "-//W3C//DTD SVG 20010904//EN"
 "http://www.w3.org/TR/2001/REC-SVG-20010904/DTD/svg10.dtd">
<svg version="1.0" xmlns="http://www.w3.org/2000/svg"
 width="666.000000pt" height="666.000000pt" viewBox="0 0 666.000000 666.000000"
 preserveAspectRatio="xMidYMid meet">
<metadata>
Created by potrace 1.14, written by Peter Selinger 2001-2017
</metadata>
<g transform="translate(0.000000,666.000000) scale(0.100000,-0.100000)"
fill="#000000" stroke="none">
<path d="M5800 4205 c-1 -22 -2 -325 -3 -673 l-2 -632 140 0 140 0 0 670 c0
439 -3 670 -10 671 -5 1 -67 2 -137 3 l-128 1 0 -40z"/>
<path d="M1665 4189 c-17 -5 -43 -21 -57 -36 -70 -73 -69 -172 2 -237 46 -41
75 -51 132 -43 144 19 190 213 69 292 -43 29 -98 38 -146 24z"/>
<path d="M3035 4192 c-55 -12 -113 -83 -116 -142 -3 -64 1 -79 32 -115 55 -62
118 -80 186 -54 87 33 131 145 89 227 -33 63 -117 101 -191 84z"/>
<path d="M570 3720 c-51 -9 -110 -39 -147 -74 l-33 -30 0 42 c0 30 -4 42 -15
43 -8 0 -70 1 -137 1 l-123 1 -3 -401 -2 -402 140 0 140 0 0 250 c0 138 0 252
0 255 0 3 6 18 14 34 45 86 175 88 228 2 22 -35 23 -45 25 -276 1 -132 2 -246
2 -252 1 -10 35 -13 136 -13 l135 0 1 138 c0 75 0 185 -1 243 -1 125 14 175
62 203 74 45 175 8 198 -72 5 -21 10 -142 10 -275 l0 -238 138 3 137 3 -1 305
c-1 283 -3 308 -21 350 -37 83 -120 143 -221 159 -108 17 -197 -9 -274 -81
-29 -26 -53 -48 -55 -48 -1 0 -24 22 -50 48 -67 66 -183 100 -283 82z"/>
<path d="M2433 3719 c-52 -10 -98 -33 -143 -72 l-35 -31 -3 42 c-2 31 -8 42
-20 43 -65 4 -244 1 -249 -4 -3 -4 -6 -184 -7 -402 l-1 -395 138 0 c135 0 137
0 138 23 0 12 0 114 0 227 0 113 4 221 9 240 17 64 93 120 162 120 53 0 123
-57 133 -109 2 -9 4 -125 4 -258 l1 -241 138 -1 138 -2 -1 293 c-1 329 -5 352
-66 422 -71 81 -217 126 -336 105z"/>
<path d="M3787 3718 c-46 -10 -109 -41 -127 -63 -7 -9 -21 -20 -31 -26 -16 -8
-18 -5 -15 26 1 20 -2 39 -7 42 -13 8 -258 9 -263 1 -3 -5 -6 -571 -4 -765 l0
-33 135 0 c74 0 135 3 136 8 0 4 1 120 2 258 2 273 4 282 63 321 34 22 104 22
138 -1 57 -37 64 -63 66 -250 1 -94 2 -207 3 -251 l2 -80 138 -2 137 -2 0 252
c0 220 2 256 18 287 39 78 152 87 214 16 14 -16 28 -41 31 -53 2 -13 5 -126 5
-251 0 -125 1 -233 1 -239 1 -10 35 -13 136 -13 122 0 135 2 136 18 0 9 1 143
1 297 0 237 -3 288 -17 330 -35 103 -148 177 -274 178 -90 1 -161 -26 -228
-87 l-54 -49 -42 45 c-66 70 -198 108 -300 86z"/>
<path d="M5060 3715 c-80 -16 -127 -42 -190 -105 -85 -85 -120 -175 -120 -311
0 -184 88 -323 250 -394 35 -16 67 -20 145 -20 89 0 106 3 151 27 28 15 65 39
83 53 l31 27 0 -46 0 -47 137 3 137 3 0 393 c1 229 -3 396 -8 400 -5 3 -68 5
-140 5 l-131 1 -1 -32 c-2 -44 -3 -48 -12 -37 -14 21 -68 53 -114 68 -62 22
-151 26 -218 12z m237 -240 c50 -21 72 -42 94 -90 47 -102 -7 -239 -101 -260
-58 -12 -69 -13 -111 -4 -132 28 -186 201 -95 304 51 59 141 80 213 50z"/>
<path d="M1595 3702 c-20 -3 -20 -9 -18 -330 1 -180 3 -360 3 -399 l0 -73 138
0 137 0 0 400 c0 350 -2 400 -15 401 -47 3 -228 4 -245 1z"/>
<path d="M2957 3701 c-6 -2 -14 -7 -17 -12 -4 -6 -5 -752 -1 -782 1 -4 63 -6
138 -5 l138 3 0 393 c1 231 -3 396 -8 399 -11 7 -231 10 -250 4z"/>
<path d="M6310 3223 c-52 -18 -71 -35 -99 -90 -87 -173 140 -340 278 -204 66
65 77 139 32 217 -41 72 -129 104 -211 77z"/>
</g>
</svg>
